<svg width="22" height="22" viewBox="0 0 22 22" fill="none" xmlns="http://www.w3.org/2000/svg">
<path fill-rule="evenodd" clip-rule="evenodd" d="M10.9997 0.333984C8.10278 0.333984 7.73922 0.346651 6.60143 0.398429C5.46586 0.45043 4.69074 0.63021 4.01251 0.89399C3.31095 1.16644 2.71583 1.53089 2.12294 2.124C1.5296 2.7169 1.16515 3.31202 0.891815 4.01336C0.627368 4.69181 0.447366 5.46715 0.396254 6.60227C0.345365 7.74006 0.332031 8.10384 0.332031 11.0008C0.332031 13.8977 0.34492 14.2601 0.396476 15.3979C0.448699 16.5335 0.628479 17.3086 0.892037 17.9868C1.16471 18.6884 1.52915 19.2835 2.12227 19.8764C2.71495 20.4698 3.31006 20.8351 4.01118 21.1075C4.68985 21.3713 5.4652 21.5511 6.60054 21.6031C7.73833 21.6549 8.10167 21.6675 10.9984 21.6675C13.8955 21.6675 14.258 21.6549 15.3957 21.6031C16.5313 21.5511 17.3073 21.3713 17.986 21.1075C18.6873 20.8351 19.2816 20.4698 19.8742 19.8764C20.4676 19.2835 20.832 18.6884 21.1054 17.9871C21.3676 17.3086 21.5476 16.5333 21.6009 15.3981C21.652 14.2604 21.6654 13.8977 21.6654 11.0008C21.6654 8.10384 21.652 7.74028 21.6009 6.60249C21.5476 5.46693 21.3676 4.69181 21.1054 4.01358C20.832 3.31202 20.4676 2.7169 19.8742 2.124C19.2809 1.53066 18.6876 1.16622 17.9853 0.89399C17.3053 0.63021 16.5298 0.45043 15.3942 0.398429C14.2564 0.346651 13.8942 0.333984 10.9964 0.333984H10.9997ZM10.0428 2.2562C10.3268 2.25575 10.6436 2.2562 10.9997 2.2562C13.8477 2.2562 14.1852 2.26642 15.3099 2.31753C16.3499 2.36509 16.9144 2.53887 17.2904 2.68487C17.7882 2.8782 18.1431 3.10932 18.5162 3.48265C18.8895 3.85599 19.1206 4.21155 19.3144 4.70933C19.4604 5.08489 19.6344 5.64934 19.6817 6.68935C19.7329 7.81381 19.744 8.15159 19.744 10.9983C19.744 13.845 19.7329 14.1828 19.6817 15.3072C19.6342 16.3472 19.4604 16.9117 19.3144 17.2872C19.1211 17.785 18.8895 18.1395 18.5162 18.5126C18.1428 18.8859 17.7884 19.117 17.2904 19.3104C16.9148 19.457 16.3499 19.6304 15.3099 19.6779C14.1855 19.729 13.8477 19.7402 10.9997 19.7402C8.1514 19.7402 7.81384 19.729 6.68939 19.6779C5.64937 19.6299 5.08492 19.4562 4.7087 19.3102C4.21091 19.1168 3.85536 18.8857 3.48202 18.5124C3.10868 18.139 2.87757 17.7844 2.68379 17.2864C2.53779 16.9108 2.36378 16.3463 2.31645 15.3063C2.26534 14.1819 2.25512 13.8441 2.25512 10.9956C2.25512 8.14715 2.26534 7.81114 2.31645 6.68669C2.36401 5.64668 2.53779 5.08223 2.68379 4.70622C2.87712 4.20844 3.10868 3.85288 3.48202 3.47954C3.85536 3.10621 4.21091 2.87509 4.7087 2.68131C5.0847 2.53464 5.64937 2.36131 6.68939 2.31353C7.6734 2.26909 8.05473 2.25575 10.0428 2.25353V2.2562ZM16.6935 4.02733C15.9868 4.02733 15.4135 4.6 15.4135 5.3069C15.4135 6.01357 15.9868 6.58691 16.6935 6.58691C17.4002 6.58691 17.9735 6.01357 17.9735 5.3069C17.9735 4.60023 17.4002 4.02733 16.6935 4.02733ZM10.9997 5.5229C7.97457 5.5229 5.52188 7.97559 5.52188 11.0007C5.52188 14.0259 7.97457 16.4775 10.9997 16.4775C14.0249 16.4775 16.4767 14.0259 16.4767 11.0007C16.4767 7.97559 14.0249 5.5229 10.9997 5.5229ZM10.9997 7.44514C12.9633 7.44514 14.5553 9.03694 14.5553 11.0007C14.5553 12.9643 12.9633 14.5563 10.9997 14.5563C9.03588 14.5563 7.44408 12.9643 7.44408 11.0007C7.44408 9.03694 9.03588 7.44514 10.9997 7.44514Z" fill="white"/>
</svg>
