<svg width="22" height="22" viewBox="0 0 22 22" fill="none" xmlns="http://www.w3.org/2000/svg">
<path d="M12.445 19.7441L1.33657 8.24814C1.05615 7.95693 0.887264 7.53998 0.829905 6.99728C0.772547 6.45458 0.842652 5.87878 1.04022 5.2699C1.23779 4.66102 1.53414 4.15141 1.92928 3.74107L3.15293 2.47036C3.54807 2.06002 4.0388 1.75227 4.62514 1.5471C5.21147 1.34193 5.76594 1.26913 6.28854 1.3287C6.81114 1.38826 7.21265 1.56365 7.49307 1.85485L18.5633 13.3906L20.3988 21.6502L12.445 19.7441ZM5.31344 6.95757C4.9438 7.35467 4.69524 7.85766 4.56778 8.46654C4.44032 9.07543 4.46581 9.5718 4.64426 9.95566C4.64426 9.9689 4.64107 9.98875 4.6347 10.0152L4.62514 10.0549L11.1258 16.8056C11.368 16.5144 11.556 16.1372 11.6898 15.6739C11.8237 15.2106 11.8938 14.787 11.9001 14.4032C11.9065 14.0193 11.8842 13.6818 11.8332 13.3906L5.48552 6.79873L5.31344 6.95757ZM7.0342 2.98658C6.72829 2.64243 6.22481 2.51668 5.52376 2.60934C4.82271 2.702 4.24912 2.97996 3.803 3.44325L2.86614 4.41614C2.42002 4.87942 2.15234 5.47507 2.06312 6.20308C1.97389 6.9311 2.09498 7.45394 2.42639 7.77162L3.30589 8.7048C3.42061 7.71206 3.7775 6.90462 4.37658 6.2825L5.60024 5.01179C6.19931 4.38966 6.97684 4.02566 7.93282 3.91976L7.0342 2.98658ZM9.46239 5.50816C9.15647 5.17724 8.65618 5.05811 7.9615 5.15077C7.26682 5.24343 6.69642 5.5214 6.2503 5.98468L6.09734 6.14352L12.445 12.7552C12.7255 12.8082 13.0505 12.8313 13.4201 12.8247C13.7898 12.8181 14.1977 12.7453 14.6438 12.6063C15.0899 12.4673 15.4532 12.2721 15.7336 12.0206L9.46239 5.50816ZM17.4926 13.8671L16.441 12.7751C15.9822 13.1325 15.4372 13.4237 14.8063 13.6487C14.1754 13.8737 13.5922 13.9928 13.0569 14.0061C13.0569 14.562 12.9453 15.1742 12.7223 15.8426C12.4992 16.5111 12.2156 17.0836 11.8715 17.5601L12.9039 18.6323L15.8101 19.2081C16.014 18.5992 16.2913 18.1127 16.6418 17.7487C16.9923 17.3847 17.4607 17.0968 18.0471 16.885L17.4926 13.8671Z" fill="white"/>
</svg>
