<svg width="22" height="22" viewBox="0 0 22 22" fill="none" xmlns="http://www.w3.org/2000/svg">
<path fill-rule="evenodd" clip-rule="evenodd" d="M10.6334 7.25527L10.6754 7.94732L9.97592 7.86258C7.42981 7.53774 5.20547 6.43612 3.31687 4.58596L2.39356 3.66794L2.15573 4.34586C1.65211 5.85706 1.97387 7.453 3.02309 8.52638C3.58267 9.11956 3.45677 9.2043 2.49149 8.85122C2.15573 8.73823 1.86195 8.65349 1.83397 8.69586C1.73605 8.79472 2.0718 10.0799 2.3376 10.5884C2.70133 11.2946 3.44278 11.9866 4.25417 12.3962L4.93966 12.721L4.12827 12.7351C3.34485 12.7351 3.31687 12.7493 3.40081 13.0459C3.6806 13.9639 4.78578 14.9384 6.01686 15.3621L6.88422 15.6587L6.12878 16.1106C5.00961 16.7603 3.69459 17.1275 2.37957 17.1558C1.75004 17.1699 1.23242 17.2264 1.23242 17.2687C1.23242 17.41 2.93915 18.2009 3.93241 18.5116C6.9122 19.4296 10.4516 19.0342 13.1096 17.4665C14.9982 16.3507 16.8868 14.1334 17.7681 11.9866C18.2438 10.8426 18.7194 8.75235 18.7194 7.74959C18.7194 7.09992 18.7614 7.01518 19.5448 6.23839C20.0065 5.78644 20.4401 5.29213 20.5241 5.15089C20.664 4.88255 20.65 4.88255 19.9365 5.12265C18.7474 5.54635 18.5795 5.48985 19.1671 4.8543C19.6008 4.40235 20.1184 3.5832 20.1184 3.3431C20.1184 3.30073 19.9085 3.37135 19.6707 3.49846C19.4189 3.63969 18.8593 3.85154 18.4396 3.97865L17.6842 4.21875L16.9987 3.75268C16.621 3.49846 16.0894 3.21599 15.8096 3.13125C15.0961 2.93352 14.0049 2.96177 13.3614 3.18774C11.6127 3.8233 10.5075 5.46161 10.6334 7.25527Z" fill="white"/>
</svg>
