<svg width="22" height="22" viewBox="0 0 22 22" fill="none" xmlns="http://www.w3.org/2000/svg">
<path d="M21.4922 5.38266C21.6459 4.85259 21.4922 4.46387 20.7655 4.46387H18.3582C17.7457 4.46387 17.4658 4.80015 17.3121 5.16949C17.3121 5.16949 16.0881 8.26898 14.3538 10.2787C13.7939 10.8635 13.5382 11.0481 13.233 11.0481C13.0804 11.0481 12.8587 10.8635 12.8587 10.3334V5.38266C12.8587 4.74657 12.6819 4.46387 12.1715 4.46387H8.38876C8.00675 4.46387 7.77623 4.75797 7.77623 5.0384C7.77623 5.64028 8.64343 5.77936 8.73234 7.47558V11.1553C8.73234 11.9612 8.59293 12.1083 8.28557 12.1083C7.46997 12.1083 5.48529 8.9974 4.30744 5.43623C4.07802 4.74429 3.8464 4.46501 3.23168 4.46501H0.825484C0.137215 4.46501 0 4.80129 0 5.17063C0 5.83407 0.815604 9.11709 3.7992 13.4591C5.78826 16.4241 8.58854 18.0314 11.1396 18.0314C12.6688 18.0314 12.8576 17.6746 12.8576 17.059V14.8179C12.8576 14.1043 13.0036 13.9607 13.4877 13.9607C13.8433 13.9607 14.4558 14.1476 15.884 15.576C17.5152 17.2699 17.7852 18.0303 18.7018 18.0303H21.108C21.7952 18.0303 22.1388 17.6735 21.9412 16.969C21.7249 16.2679 20.9455 15.2477 19.9115 14.0405C19.3495 13.352 18.5097 12.611 18.2539 12.2405C17.8972 11.7629 18.0004 11.552 18.2539 11.1279C18.255 11.1291 21.187 6.84064 21.4922 5.38266V5.38266Z" fill="white"/>
</svg>
