<svg width="22" height="22" viewBox="0 0 22 22" fill="none" xmlns="http://www.w3.org/2000/svg">
<path fill-rule="evenodd" clip-rule="evenodd" d="M19.5131 3.79078C20.431 4.04267 21.1539 4.78485 21.3992 5.72736C21.8451 7.43554 21.8451 10.9997 21.8451 10.9997C21.8451 10.9997 21.8451 14.5637 21.3992 16.272C21.1539 17.2145 20.431 17.9567 19.5131 18.2087C17.8495 18.6663 11.1784 18.6663 11.1784 18.6663C11.1784 18.6663 4.50723 18.6663 2.8436 18.2087C1.92566 17.9567 1.20275 17.2145 0.957416 16.272C0.511719 14.5637 0.511719 10.9997 0.511719 10.9997C0.511719 10.9997 0.511719 7.43554 0.957416 5.72736C1.20275 4.78485 1.92566 4.04267 2.8436 3.79078C4.50723 3.33301 11.1784 3.33301 11.1784 3.33301C11.1784 3.33301 17.8495 3.33301 19.5131 3.79078ZM9.17841 7.9996V14.6663L14.5117 11.3331L9.17841 7.9996Z" fill="white"/>
</svg>
