<svg width="350" height="277" viewBox="0 0 350 277" fill="none" xmlns="http://www.w3.org/2000/svg">
<path d="M0 0H350V276.57H0V0Z" fill="#ACACAC"/>
<path d="M231.64 201.75V187.583C231.64 180.069 228.655 172.862 223.341 167.549C218.028 162.235 210.821 159.25 203.307 159.25H146.64C139.126 159.25 131.919 162.235 126.605 167.549C121.292 172.862 118.307 180.069 118.307 187.583V201.75" stroke="#242529" stroke-width="3" stroke-linecap="round" stroke-linejoin="round"/>
<path d="M175.027 130.917C190.675 130.917 203.36 118.231 203.36 102.583C203.36 86.9353 190.675 74.25 175.027 74.25C159.379 74.25 146.693 86.9353 146.693 102.583C146.693 118.231 159.379 130.917 175.027 130.917Z" stroke="#242529" stroke-width="3" stroke-linecap="round" stroke-linejoin="round"/>
</svg>
